<svg xmlns="http://www.w3.org/2000/svg" width="256" height="256" viewbox="0 0 302 302" preserveAspectRatio="none">
	<rect x="0" y="0" width="100%" height="100%" fill="rgb(117, 102, 102)"/>
	<rect x="2.8" y="2.8" width="39.2" height="39.2" fill="none" stroke="#222"
		  style="opacity:0.046;stroke-width:5.6px;"/>
	<rect x="14" y="14" width="16.8" height="16.8" fill="none" stroke="#ddd"
		  style="opacity:0.10666666666667;stroke-width:5.6px;"/>
	<rect x="53.2" y="2.8" width="39.2" height="39.2" fill="none" stroke="#ddd"
		  style="opacity:0.037333333333333;stroke-width:5.6px;"/>
	<rect x="64.4" y="14" width="16.8" height="16.8" fill="none" stroke="#ddd"
		  style="opacity:0.124;stroke-width:5.6px;"/>
	<rect x="103.6" y="2.8" width="39.2" height="39.2" fill="none" stroke="#222"
		  style="opacity:0.063333333333333;stroke-width:5.6px;"/>
	<rect x="114.8" y="14" width="16.8" height="16.8" fill="none" stroke="#222"
		  style="opacity:0.080666666666667;stroke-width:5.6px;"/>
	<rect x="154" y="2.8" width="39.2" height="39.2" fill="none" stroke="#222"
		  style="opacity:0.098;stroke-width:5.6px;"/>
	<rect x="165.2" y="14" width="16.8" height="16.8" fill="none" stroke="#222"
		  style="opacity:0.080666666666667;stroke-width:5.6px;"/>
	<rect x="204.4" y="2.8" width="39.2" height="39.2" fill="none" stroke="#ddd"
		  style="opacity:0.072;stroke-width:5.6px;"/>
	<rect x="215.6" y="14" width="16.8" height="16.8" fill="none" stroke="#ddd"
		  style="opacity:0.089333333333333;stroke-width:5.6px;"/>
	<rect x="254.8" y="2.8" width="39.2" height="39.2" fill="none" stroke="#ddd"
		  style="opacity:0.072;stroke-width:5.6px;"/>
	<rect x="266" y="14" width="16.8" height="16.8" fill="none" stroke="#222" style="opacity:0.15;stroke-width:5.6px;"/>
	<rect x="2.8" y="53.2" width="39.2" height="39.2" fill="none" stroke="#222"
		  style="opacity:0.13266666666667;stroke-width:5.6px;"/>
	<rect x="14" y="64.4" width="16.8" height="16.8" fill="none" stroke="#222"
		  style="opacity:0.046;stroke-width:5.6px;"/>
	<rect x="53.2" y="53.2" width="39.2" height="39.2" fill="none" stroke="#222"
		  style="opacity:0.080666666666667;stroke-width:5.6px;"/>
	<rect x="64.4" y="64.4" width="16.8" height="16.8" fill="none" stroke="#ddd"
		  style="opacity:0.072;stroke-width:5.6px;"/>
	<rect x="103.6" y="53.2" width="39.2" height="39.2" fill="none" stroke="#ddd"
		  style="opacity:0.072;stroke-width:5.6px;"/>
	<rect x="114.8" y="64.4" width="16.8" height="16.8" fill="none" stroke="#ddd"
		  style="opacity:0.14133333333333;stroke-width:5.6px;"/>
	<rect x="154" y="53.2" width="39.2" height="39.2" fill="none" stroke="#ddd"
		  style="opacity:0.02;stroke-width:5.6px;"/>
	<rect x="165.2" y="64.4" width="16.8" height="16.8" fill="none" stroke="#222"
		  style="opacity:0.080666666666667;stroke-width:5.6px;"/>
	<rect x="204.4" y="53.2" width="39.2" height="39.2" fill="none" stroke="#222"
		  style="opacity:0.11533333333333;stroke-width:5.6px;"/>
	<rect x="215.6" y="64.4" width="16.8" height="16.8" fill="none" stroke="#222"
		  style="opacity:0.028666666666667;stroke-width:5.6px;"/>
	<rect x="254.8" y="53.2" width="39.2" height="39.2" fill="none" stroke="#ddd"
		  style="opacity:0.054666666666667;stroke-width:5.6px;"/>
	<rect x="266" y="64.4" width="16.8" height="16.8" fill="none" stroke="#222"
		  style="opacity:0.063333333333333;stroke-width:5.6px;"/>
	<rect x="2.8" y="103.6" width="39.2" height="39.2" fill="none" stroke="#ddd"
		  style="opacity:0.10666666666667;stroke-width:5.6px;"/>
	<rect x="14" y="114.8" width="16.8" height="16.8" fill="none" stroke="#ddd"
		  style="opacity:0.054666666666667;stroke-width:5.6px;"/>
	<rect x="53.2" y="103.6" width="39.2" height="39.2" fill="none" stroke="#222"
		  style="opacity:0.028666666666667;stroke-width:5.6px;"/>
	<rect x="64.4" y="114.8" width="16.8" height="16.8" fill="none" stroke="#222"
		  style="opacity:0.15;stroke-width:5.6px;"/>
	<rect x="103.6" y="103.6" width="39.2" height="39.2" fill="none" stroke="#222"
		  style="opacity:0.046;stroke-width:5.6px;"/>
	<rect x="114.8" y="114.8" width="16.8" height="16.8" fill="none" stroke="#222"
		  style="opacity:0.15;stroke-width:5.6px;"/>
	<rect x="154" y="103.6" width="39.2" height="39.2" fill="none" stroke="#ddd"
		  style="opacity:0.089333333333333;stroke-width:5.6px;"/>
	<rect x="165.2" y="114.8" width="16.8" height="16.8" fill="none" stroke="#ddd"
		  style="opacity:0.054666666666667;stroke-width:5.6px;"/>
	<rect x="204.4" y="103.6" width="39.2" height="39.2" fill="none" stroke="#ddd"
		  style="opacity:0.037333333333333;stroke-width:5.6px;"/>
	<rect x="215.6" y="114.8" width="16.8" height="16.8" fill="none" stroke="#ddd"
		  style="opacity:0.124;stroke-width:5.6px;"/>
	<rect x="254.8" y="103.6" width="39.2" height="39.2" fill="none" stroke="#ddd"
		  style="opacity:0.072;stroke-width:5.6px;"/>
	<rect x="266" y="114.8" width="16.8" height="16.8" fill="none" stroke="#222"
		  style="opacity:0.11533333333333;stroke-width:5.6px;"/>
	<rect x="2.8" y="154" width="39.2" height="39.2" fill="none" stroke="#222"
		  style="opacity:0.13266666666667;stroke-width:5.6px;"/>
	<rect x="14" y="165.2" width="16.8" height="16.8" fill="none" stroke="#222"
		  style="opacity:0.098;stroke-width:5.6px;"/>
	<rect x="53.2" y="154" width="39.2" height="39.2" fill="none" stroke="#ddd"
		  style="opacity:0.10666666666667;stroke-width:5.6px;"/>
	<rect x="64.4" y="165.2" width="16.8" height="16.8" fill="none" stroke="#222"
		  style="opacity:0.13266666666667;stroke-width:5.6px;"/>
	<rect x="103.6" y="154" width="39.2" height="39.2" fill="none" stroke="#222"
		  style="opacity:0.13266666666667;stroke-width:5.6px;"/>
	<rect x="114.8" y="165.2" width="16.8" height="16.8" fill="none" stroke="#ddd"
		  style="opacity:0.10666666666667;stroke-width:5.6px;"/>
	<rect x="154" y="154" width="39.2" height="39.2" fill="none" stroke="#222"
		  style="opacity:0.098;stroke-width:5.6px;"/>
	<rect x="165.2" y="165.2" width="16.8" height="16.8" fill="none" stroke="#222"
		  style="opacity:0.13266666666667;stroke-width:5.6px;"/>
	<rect x="204.4" y="154" width="39.2" height="39.2" fill="none" stroke="#222"
		  style="opacity:0.11533333333333;stroke-width:5.6px;"/>
	<rect x="215.6" y="165.2" width="16.8" height="16.8" fill="none" stroke="#ddd"
		  style="opacity:0.072;stroke-width:5.6px;"/>
	<rect x="254.8" y="154" width="39.2" height="39.2" fill="none" stroke="#ddd"
		  style="opacity:0.124;stroke-width:5.6px;"/>
	<rect x="266" y="165.2" width="16.8" height="16.8" fill="none" stroke="#ddd"
		  style="opacity:0.037333333333333;stroke-width:5.6px;"/>
	<rect x="2.8" y="204.4" width="39.2" height="39.2" fill="none" stroke="#ddd"
		  style="opacity:0.054666666666667;stroke-width:5.6px;"/>
	<rect x="14" y="215.6" width="16.8" height="16.8" fill="none" stroke="#ddd"
		  style="opacity:0.089333333333333;stroke-width:5.6px;"/>
	<rect x="53.2" y="204.4" width="39.2" height="39.2" fill="none" stroke="#222"
		  style="opacity:0.15;stroke-width:5.6px;"/>
	<rect x="64.4" y="215.6" width="16.8" height="16.8" fill="none" stroke="#222"
		  style="opacity:0.046;stroke-width:5.6px;"/>
	<rect x="103.6" y="204.4" width="39.2" height="39.2" fill="none" stroke="#222"
		  style="opacity:0.15;stroke-width:5.6px;"/>
	<rect x="114.8" y="215.6" width="16.8" height="16.8" fill="none" stroke="#222"
		  style="opacity:0.028666666666667;stroke-width:5.6px;"/>
	<rect x="154" y="204.4" width="39.2" height="39.2" fill="none" stroke="#ddd"
		  style="opacity:0.054666666666667;stroke-width:5.6px;"/>
	<rect x="165.2" y="215.6" width="16.8" height="16.8" fill="none" stroke="#ddd"
		  style="opacity:0.10666666666667;stroke-width:5.6px;"/>
	<rect x="204.4" y="204.4" width="39.2" height="39.2" fill="none" stroke="#222"
		  style="opacity:0.063333333333333;stroke-width:5.6px;"/>
	<rect x="215.6" y="215.6" width="16.8" height="16.8" fill="none" stroke="#ddd"
		  style="opacity:0.054666666666667;stroke-width:5.6px;"/>
	<rect x="254.8" y="204.4" width="39.2" height="39.2" fill="none" stroke="#222"
		  style="opacity:0.028666666666667;stroke-width:5.6px;"/>
	<rect x="266" y="215.6" width="16.8" height="16.8" fill="none" stroke="#222"
		  style="opacity:0.11533333333333;stroke-width:5.6px;"/>
	<rect x="2.8" y="254.8" width="39.2" height="39.2" fill="none" stroke="#222"
		  style="opacity:0.080666666666667;stroke-width:5.6px;"/>
	<rect x="14" y="266" width="16.8" height="16.8" fill="none" stroke="#ddd" style="opacity:0.02;stroke-width:5.6px;"/>
	<rect x="53.2" y="254.8" width="39.2" height="39.2" fill="none" stroke="#ddd"
		  style="opacity:0.14133333333333;stroke-width:5.6px;"/>
	<rect x="64.4" y="266" width="16.8" height="16.8" fill="none" stroke="#ddd"
		  style="opacity:0.072;stroke-width:5.6px;"/>
	<rect x="103.6" y="254.8" width="39.2" height="39.2" fill="none" stroke="#ddd"
		  style="opacity:0.072;stroke-width:5.6px;"/>
	<rect x="114.8" y="266" width="16.8" height="16.8" fill="none" stroke="#222"
		  style="opacity:0.080666666666667;stroke-width:5.6px;"/>
	<rect x="154" y="254.8" width="39.2" height="39.2" fill="none" stroke="#222"
		  style="opacity:0.046;stroke-width:5.6px;"/>
	<rect x="165.2" y="266" width="16.8" height="16.8" fill="none" stroke="#222"
		  style="opacity:0.13266666666667;stroke-width:5.6px;"/>
	<rect x="204.4" y="254.8" width="39.2" height="39.2" fill="none" stroke="#222"
		  style="opacity:0.15;stroke-width:5.6px;"/>
	<rect x="215.6" y="266" width="16.8" height="16.8" fill="none" stroke="#ddd"
		  style="opacity:0.072;stroke-width:5.6px;"/>
	<rect x="254.8" y="254.8" width="39.2" height="39.2" fill="none" stroke="#ddd"
		  style="opacity:0.089333333333333;stroke-width:5.6px;"/>
	<rect x="266" y="266" width="16.8" height="16.8" fill="none" stroke="#ddd"
		  style="opacity:0.072;stroke-width:5.6px;"/>
</svg>
